<mxfile host="app.diagrams.net" modified="2023-05-04T20:33:30.669Z" agent="Mozilla/5.0 (Windows NT 10.0; Win64; x64) AppleWebKit/537.36 (KHTML, like Gecko) Chrome/112.0.0.0 Safari/537.36" etag="A1zQtz7ldMJmBff35zH9" version="21.2.3" type="device">
  <diagram name="Page-1" id="EhC1clOw4kqkkjUKBcwU">
    <mxGraphModel dx="4489" dy="2075" grid="1" gridSize="10" guides="1" tooltips="1" connect="1" arrows="1" fold="1" page="1" pageScale="1" pageWidth="827" pageHeight="1169" math="0" shadow="0">
      <root>
        <mxCell id="0" />
        <mxCell id="1" parent="0" />
        <mxCell id="nRip51ZFXmfpwrwbaj71-43" style="edgeStyle=orthogonalEdgeStyle;rounded=0;orthogonalLoop=1;jettySize=auto;html=1;entryX=0.5;entryY=1;entryDx=0;entryDy=0;endArrow=block;endFill=0;" edge="1" parent="1" source="nRip51ZFXmfpwrwbaj71-1" target="nRip51ZFXmfpwrwbaj71-42">
          <mxGeometry relative="1" as="geometry" />
        </mxCell>
        <mxCell id="nRip51ZFXmfpwrwbaj71-1" value="&amp;lt;&amp;lt;class&amp;gt;&amp;gt;&lt;br&gt;&lt;b&gt;UDPCommunicator&lt;/b&gt;" style="swimlane;fontStyle=0;align=center;verticalAlign=top;childLayout=stackLayout;horizontal=1;startSize=55;horizontalStack=0;resizeParent=1;resizeParentMax=0;resizeLast=0;collapsible=0;marginBottom=0;html=1;whiteSpace=wrap;" vertex="1" parent="1">
          <mxGeometry x="-414" y="230" width="280" height="403" as="geometry" />
        </mxCell>
        <mxCell id="nRip51ZFXmfpwrwbaj71-2" value="attributes" style="text;html=1;strokeColor=none;fillColor=none;align=center;verticalAlign=middle;spacingLeft=4;spacingRight=4;overflow=hidden;rotatable=0;points=[[0,0.5],[1,0.5]];portConstraint=eastwest;whiteSpace=wrap;" vertex="1" parent="nRip51ZFXmfpwrwbaj71-1">
          <mxGeometry y="55" width="280" height="20" as="geometry" />
        </mxCell>
        <mxCell id="nRip51ZFXmfpwrwbaj71-10" value="- senderClientTargetIPAddress:string" style="text;html=1;strokeColor=none;fillColor=none;align=left;verticalAlign=middle;spacingLeft=4;spacingRight=4;overflow=hidden;rotatable=0;points=[[0,0.5],[1,0.5]];portConstraint=eastwest;whiteSpace=wrap;" vertex="1" parent="nRip51ZFXmfpwrwbaj71-1">
          <mxGeometry y="75" width="280" height="20" as="geometry" />
        </mxCell>
        <mxCell id="nRip51ZFXmfpwrwbaj71-3" value="- senderClientPort:int = 5000" style="text;html=1;strokeColor=none;fillColor=none;align=left;verticalAlign=middle;spacingLeft=4;spacingRight=4;overflow=hidden;rotatable=0;points=[[0,0.5],[1,0.5]];portConstraint=eastwest;whiteSpace=wrap;" vertex="1" parent="nRip51ZFXmfpwrwbaj71-1">
          <mxGeometry y="95" width="280" height="20" as="geometry" />
        </mxCell>
        <mxCell id="nRip51ZFXmfpwrwbaj71-11" value="# udpSenderClient:UdpClient" style="text;html=1;strokeColor=none;fillColor=none;align=left;verticalAlign=middle;spacingLeft=4;spacingRight=4;overflow=hidden;rotatable=0;points=[[0,0.5],[1,0.5]];portConstraint=eastwest;whiteSpace=wrap;" vertex="1" parent="nRip51ZFXmfpwrwbaj71-1">
          <mxGeometry y="115" width="280" height="20" as="geometry" />
        </mxCell>
        <mxCell id="nRip51ZFXmfpwrwbaj71-14" value="# receiverPort:int = 4210" style="text;html=1;strokeColor=none;fillColor=none;align=left;verticalAlign=middle;spacingLeft=4;spacingRight=4;overflow=hidden;rotatable=0;points=[[0,0.5],[1,0.5]];portConstraint=eastwest;whiteSpace=wrap;" vertex="1" parent="nRip51ZFXmfpwrwbaj71-1">
          <mxGeometry y="135" width="280" height="20" as="geometry" />
        </mxCell>
        <mxCell id="nRip51ZFXmfpwrwbaj71-15" value="# receiverClientErrorName:string" style="text;html=1;strokeColor=none;fillColor=none;align=left;verticalAlign=middle;spacingLeft=4;spacingRight=4;overflow=hidden;rotatable=0;points=[[0,0.5],[1,0.5]];portConstraint=eastwest;whiteSpace=wrap;" vertex="1" parent="nRip51ZFXmfpwrwbaj71-1">
          <mxGeometry y="155" width="280" height="20" as="geometry" />
        </mxCell>
        <mxCell id="nRip51ZFXmfpwrwbaj71-13" value="+ udpReceiverClient:UdpClient" style="text;html=1;strokeColor=none;fillColor=none;align=left;verticalAlign=middle;spacingLeft=4;spacingRight=4;overflow=hidden;rotatable=0;points=[[0,0.5],[1,0.5]];portConstraint=eastwest;whiteSpace=wrap;" vertex="1" parent="nRip51ZFXmfpwrwbaj71-1">
          <mxGeometry y="175" width="280" height="20" as="geometry" />
        </mxCell>
        <mxCell id="nRip51ZFXmfpwrwbaj71-16" value="# receiverClientCoroutine:Coroutine" style="text;html=1;strokeColor=none;fillColor=none;align=left;verticalAlign=middle;spacingLeft=4;spacingRight=4;overflow=hidden;rotatable=0;points=[[0,0.5],[1,0.5]];portConstraint=eastwest;whiteSpace=wrap;" vertex="1" parent="nRip51ZFXmfpwrwbaj71-1">
          <mxGeometry y="195" width="280" height="20" as="geometry" />
        </mxCell>
        <mxCell id="nRip51ZFXmfpwrwbaj71-6" value="" style="line;strokeWidth=1;fillColor=none;align=left;verticalAlign=middle;spacingTop=-1;spacingLeft=3;spacingRight=3;rotatable=0;labelPosition=right;points=[];portConstraint=eastwest;" vertex="1" parent="nRip51ZFXmfpwrwbaj71-1">
          <mxGeometry y="215" width="280" height="8" as="geometry" />
        </mxCell>
        <mxCell id="nRip51ZFXmfpwrwbaj71-7" value="operations" style="text;html=1;strokeColor=none;fillColor=none;align=center;verticalAlign=middle;spacingLeft=4;spacingRight=4;overflow=hidden;rotatable=0;points=[[0,0.5],[1,0.5]];portConstraint=eastwest;whiteSpace=wrap;" vertex="1" parent="nRip51ZFXmfpwrwbaj71-1">
          <mxGeometry y="223" width="280" height="20" as="geometry" />
        </mxCell>
        <mxCell id="nRip51ZFXmfpwrwbaj71-8" value="# StartReceiverClient(port:int):void" style="text;html=1;strokeColor=none;fillColor=none;align=left;verticalAlign=middle;spacingLeft=4;spacingRight=4;overflow=hidden;rotatable=0;points=[[0,0.5],[1,0.5]];portConstraint=eastwest;whiteSpace=wrap;" vertex="1" parent="nRip51ZFXmfpwrwbaj71-1">
          <mxGeometry y="243" width="280" height="20" as="geometry" />
        </mxCell>
        <mxCell id="nRip51ZFXmfpwrwbaj71-17" value="# StartReceiverCoroutine:void" style="text;html=1;strokeColor=none;fillColor=none;align=left;verticalAlign=middle;spacingLeft=4;spacingRight=4;overflow=hidden;rotatable=0;points=[[0,0.5],[1,0.5]];portConstraint=eastwest;whiteSpace=wrap;" vertex="1" parent="nRip51ZFXmfpwrwbaj71-1">
          <mxGeometry y="263" width="280" height="20" as="geometry" />
        </mxCell>
        <mxCell id="nRip51ZFXmfpwrwbaj71-18" value="# StopReceiverCoroutine:void" style="text;html=1;strokeColor=none;fillColor=none;align=left;verticalAlign=middle;spacingLeft=4;spacingRight=4;overflow=hidden;rotatable=0;points=[[0,0.5],[1,0.5]];portConstraint=eastwest;whiteSpace=wrap;" vertex="1" parent="nRip51ZFXmfpwrwbaj71-1">
          <mxGeometry y="283" width="280" height="20" as="geometry" />
        </mxCell>
        <mxCell id="nRip51ZFXmfpwrwbaj71-19" value="# ListenForPackets:IEnumerator" style="text;html=1;strokeColor=none;fillColor=none;align=left;verticalAlign=middle;spacingLeft=4;spacingRight=4;overflow=hidden;rotatable=0;points=[[0,0.5],[1,0.5]];portConstraint=eastwest;whiteSpace=wrap;" vertex="1" parent="nRip51ZFXmfpwrwbaj71-1">
          <mxGeometry y="303" width="280" height="20" as="geometry" />
        </mxCell>
        <mxCell id="nRip51ZFXmfpwrwbaj71-20" value="# OnPacketReceived(receivedData:string):void" style="text;html=1;strokeColor=none;fillColor=none;align=left;verticalAlign=middle;spacingLeft=4;spacingRight=4;overflow=hidden;rotatable=0;points=[[0,0.5],[1,0.5]];portConstraint=eastwest;whiteSpace=wrap;" vertex="1" parent="nRip51ZFXmfpwrwbaj71-1">
          <mxGeometry y="323" width="280" height="20" as="geometry" />
        </mxCell>
        <mxCell id="nRip51ZFXmfpwrwbaj71-21" value="# StartSenderClient:void" style="text;html=1;strokeColor=none;fillColor=none;align=left;verticalAlign=middle;spacingLeft=4;spacingRight=4;overflow=hidden;rotatable=0;points=[[0,0.5],[1,0.5]];portConstraint=eastwest;whiteSpace=wrap;" vertex="1" parent="nRip51ZFXmfpwrwbaj71-1">
          <mxGeometry y="343" width="280" height="20" as="geometry" />
        </mxCell>
        <mxCell id="nRip51ZFXmfpwrwbaj71-22" value="# SendPacket(data:string):void" style="text;html=1;strokeColor=none;fillColor=none;align=left;verticalAlign=middle;spacingLeft=4;spacingRight=4;overflow=hidden;rotatable=0;points=[[0,0.5],[1,0.5]];portConstraint=eastwest;whiteSpace=wrap;" vertex="1" parent="nRip51ZFXmfpwrwbaj71-1">
          <mxGeometry y="363" width="280" height="20" as="geometry" />
        </mxCell>
        <mxCell id="nRip51ZFXmfpwrwbaj71-23" value="# OnDisable:void" style="text;html=1;strokeColor=none;fillColor=none;align=left;verticalAlign=middle;spacingLeft=4;spacingRight=4;overflow=hidden;rotatable=0;points=[[0,0.5],[1,0.5]];portConstraint=eastwest;whiteSpace=wrap;" vertex="1" parent="nRip51ZFXmfpwrwbaj71-1">
          <mxGeometry y="383" width="280" height="20" as="geometry" />
        </mxCell>
        <mxCell id="nRip51ZFXmfpwrwbaj71-32" style="edgeStyle=orthogonalEdgeStyle;rounded=0;orthogonalLoop=1;jettySize=auto;html=1;endArrow=block;endFill=0;" edge="1" parent="1" source="nRip51ZFXmfpwrwbaj71-24" target="nRip51ZFXmfpwrwbaj71-1">
          <mxGeometry relative="1" as="geometry" />
        </mxCell>
        <mxCell id="nRip51ZFXmfpwrwbaj71-89" style="edgeStyle=orthogonalEdgeStyle;rounded=0;orthogonalLoop=1;jettySize=auto;html=1;entryX=0;entryY=0.5;entryDx=0;entryDy=0;endArrow=open;endFill=0;" edge="1" parent="1" source="nRip51ZFXmfpwrwbaj71-24" target="nRip51ZFXmfpwrwbaj71-35">
          <mxGeometry relative="1" as="geometry" />
        </mxCell>
        <mxCell id="nRip51ZFXmfpwrwbaj71-160" style="edgeStyle=orthogonalEdgeStyle;rounded=0;orthogonalLoop=1;jettySize=auto;html=1;entryX=0;entryY=0.5;entryDx=0;entryDy=0;endArrow=open;endFill=0;" edge="1" parent="1" source="nRip51ZFXmfpwrwbaj71-24" target="nRip51ZFXmfpwrwbaj71-134">
          <mxGeometry relative="1" as="geometry">
            <Array as="points">
              <mxPoint x="-525" y="1220" />
              <mxPoint x="-700" y="1220" />
              <mxPoint x="-700" y="1445" />
            </Array>
          </mxGeometry>
        </mxCell>
        <mxCell id="nRip51ZFXmfpwrwbaj71-24" value="&amp;lt;&amp;lt;class&amp;gt;&amp;gt;&lt;br&gt;&lt;b&gt;GunCommunication&lt;/b&gt;" style="swimlane;fontStyle=0;align=center;verticalAlign=top;childLayout=stackLayout;horizontal=1;startSize=55;horizontalStack=0;resizeParent=1;resizeParentMax=0;resizeLast=0;collapsible=0;marginBottom=0;html=1;whiteSpace=wrap;" vertex="1" parent="1">
          <mxGeometry x="-730" y="750" width="410" height="431" as="geometry" />
        </mxCell>
        <mxCell id="nRip51ZFXmfpwrwbaj71-25" value="attributes" style="text;html=1;strokeColor=none;fillColor=none;align=center;verticalAlign=middle;spacingLeft=4;spacingRight=4;overflow=hidden;rotatable=0;points=[[0,0.5],[1,0.5]];portConstraint=eastwest;whiteSpace=wrap;" vertex="1" parent="nRip51ZFXmfpwrwbaj71-24">
          <mxGeometry y="55" width="410" height="20" as="geometry" />
        </mxCell>
        <mxCell id="nRip51ZFXmfpwrwbaj71-26" value="+ nerfgunEmulationToggle:Toggle" style="text;html=1;strokeColor=none;fillColor=none;align=left;verticalAlign=middle;spacingLeft=4;spacingRight=4;overflow=hidden;rotatable=0;points=[[0,0.5],[1,0.5]];portConstraint=eastwest;whiteSpace=wrap;" vertex="1" parent="nRip51ZFXmfpwrwbaj71-24">
          <mxGeometry y="75" width="410" height="20" as="geometry" />
        </mxCell>
        <mxCell id="nRip51ZFXmfpwrwbaj71-44" value="- state:NerfgunState" style="text;html=1;strokeColor=none;fillColor=none;align=left;verticalAlign=middle;spacingLeft=4;spacingRight=4;overflow=hidden;rotatable=0;points=[[0,0.5],[1,0.5]];portConstraint=eastwest;whiteSpace=wrap;" vertex="1" parent="nRip51ZFXmfpwrwbaj71-24">
          <mxGeometry y="95" width="410" height="20" as="geometry" />
        </mxCell>
        <mxCell id="nRip51ZFXmfpwrwbaj71-45" value="- command:NerfgunCommandRequest" style="text;html=1;strokeColor=none;fillColor=none;align=left;verticalAlign=middle;spacingLeft=4;spacingRight=4;overflow=hidden;rotatable=0;points=[[0,0.5],[1,0.5]];portConstraint=eastwest;whiteSpace=wrap;" vertex="1" parent="nRip51ZFXmfpwrwbaj71-24">
          <mxGeometry y="115" width="410" height="20" as="geometry" />
        </mxCell>
        <mxCell id="nRip51ZFXmfpwrwbaj71-46" value="+ OnNerfgunFired:delegate" style="text;html=1;strokeColor=none;fillColor=none;align=left;verticalAlign=middle;spacingLeft=4;spacingRight=4;overflow=hidden;rotatable=0;points=[[0,0.5],[1,0.5]];portConstraint=eastwest;whiteSpace=wrap;" vertex="1" parent="nRip51ZFXmfpwrwbaj71-24">
          <mxGeometry y="135" width="410" height="20" as="geometry" />
        </mxCell>
        <mxCell id="nRip51ZFXmfpwrwbaj71-47" value="- physicalShotsFired:int = 0" style="text;html=1;strokeColor=none;fillColor=none;align=left;verticalAlign=middle;spacingLeft=4;spacingRight=4;overflow=hidden;rotatable=0;points=[[0,0.5],[1,0.5]];portConstraint=eastwest;whiteSpace=wrap;" vertex="1" parent="nRip51ZFXmfpwrwbaj71-24">
          <mxGeometry y="155" width="410" height="20" as="geometry" />
        </mxCell>
        <mxCell id="nRip51ZFXmfpwrwbaj71-64" value="- physicalGunMode:bool = false" style="text;html=1;strokeColor=none;fillColor=none;align=left;verticalAlign=middle;spacingLeft=4;spacingRight=4;overflow=hidden;rotatable=0;points=[[0,0.5],[1,0.5]];portConstraint=eastwest;whiteSpace=wrap;" vertex="1" parent="nRip51ZFXmfpwrwbaj71-24">
          <mxGeometry y="175" width="410" height="20" as="geometry" />
        </mxCell>
        <mxCell id="nRip51ZFXmfpwrwbaj71-48" value="- physicalGunMode:bool = false" style="text;html=1;strokeColor=none;fillColor=none;align=left;verticalAlign=middle;spacingLeft=4;spacingRight=4;overflow=hidden;rotatable=0;points=[[0,0.5],[1,0.5]];portConstraint=eastwest;whiteSpace=wrap;" vertex="1" parent="nRip51ZFXmfpwrwbaj71-24">
          <mxGeometry y="195" width="410" height="20" as="geometry" />
        </mxCell>
        <mxCell id="nRip51ZFXmfpwrwbaj71-49" value="" style="line;strokeWidth=1;fillColor=none;align=left;verticalAlign=middle;spacingTop=-1;spacingLeft=3;spacingRight=3;rotatable=0;labelPosition=right;points=[];portConstraint=eastwest;" vertex="1" parent="nRip51ZFXmfpwrwbaj71-24">
          <mxGeometry y="215" width="410" height="8" as="geometry" />
        </mxCell>
        <mxCell id="nRip51ZFXmfpwrwbaj71-50" value="properties" style="text;html=1;strokeColor=none;fillColor=none;align=center;verticalAlign=middle;spacingLeft=4;spacingRight=4;overflow=hidden;rotatable=0;points=[[0,0.5],[1,0.5]];portConstraint=eastwest;whiteSpace=wrap;" vertex="1" parent="nRip51ZFXmfpwrwbaj71-24">
          <mxGeometry y="223" width="410" height="20" as="geometry" />
        </mxCell>
        <mxCell id="nRip51ZFXmfpwrwbaj71-51" value="+ State:NerfgunState=&amp;gt; state" style="text;html=1;strokeColor=none;fillColor=none;align=left;verticalAlign=middle;spacingLeft=4;spacingRight=4;overflow=hidden;rotatable=0;points=[[0,0.5],[1,0.5]];portConstraint=eastwest;whiteSpace=wrap;" vertex="1" parent="nRip51ZFXmfpwrwbaj71-24">
          <mxGeometry y="243" width="410" height="20" as="geometry" />
        </mxCell>
        <mxCell id="nRip51ZFXmfpwrwbaj71-52" value="+ Command:NerfgunCommandRequest =&amp;gt; command" style="text;html=1;strokeColor=none;fillColor=none;align=left;verticalAlign=middle;spacingLeft=4;spacingRight=4;overflow=hidden;rotatable=0;points=[[0,0.5],[1,0.5]];portConstraint=eastwest;whiteSpace=wrap;" vertex="1" parent="nRip51ZFXmfpwrwbaj71-24">
          <mxGeometry y="263" width="410" height="20" as="geometry" />
        </mxCell>
        <mxCell id="nRip51ZFXmfpwrwbaj71-53" value="+ PhysicalShotsFired:int =&amp;gt; physicalShotsFired" style="text;html=1;strokeColor=none;fillColor=none;align=left;verticalAlign=middle;spacingLeft=4;spacingRight=4;overflow=hidden;rotatable=0;points=[[0,0.5],[1,0.5]];portConstraint=eastwest;whiteSpace=wrap;" vertex="1" parent="nRip51ZFXmfpwrwbaj71-24">
          <mxGeometry y="283" width="410" height="20" as="geometry" />
        </mxCell>
        <mxCell id="nRip51ZFXmfpwrwbaj71-54" value="+ PhysicalGunMode:bool =&amp;gt; physicalGunMode" style="text;html=1;strokeColor=none;fillColor=none;align=left;verticalAlign=middle;spacingLeft=4;spacingRight=4;overflow=hidden;rotatable=0;points=[[0,0.5],[1,0.5]];portConstraint=eastwest;whiteSpace=wrap;" vertex="1" parent="nRip51ZFXmfpwrwbaj71-24">
          <mxGeometry y="303" width="410" height="20" as="geometry" />
        </mxCell>
        <mxCell id="nRip51ZFXmfpwrwbaj71-29" value="" style="line;strokeWidth=1;fillColor=none;align=left;verticalAlign=middle;spacingTop=-1;spacingLeft=3;spacingRight=3;rotatable=0;labelPosition=right;points=[];portConstraint=eastwest;" vertex="1" parent="nRip51ZFXmfpwrwbaj71-24">
          <mxGeometry y="323" width="410" height="8" as="geometry" />
        </mxCell>
        <mxCell id="nRip51ZFXmfpwrwbaj71-30" value="operations" style="text;html=1;strokeColor=none;fillColor=none;align=center;verticalAlign=middle;spacingLeft=4;spacingRight=4;overflow=hidden;rotatable=0;points=[[0,0.5],[1,0.5]];portConstraint=eastwest;whiteSpace=wrap;" vertex="1" parent="nRip51ZFXmfpwrwbaj71-24">
          <mxGeometry y="331" width="410" height="20" as="geometry" />
        </mxCell>
        <mxCell id="nRip51ZFXmfpwrwbaj71-31" value="- OnEnable:void" style="text;html=1;strokeColor=none;fillColor=none;align=left;verticalAlign=middle;spacingLeft=4;spacingRight=4;overflow=hidden;rotatable=0;points=[[0,0.5],[1,0.5]];portConstraint=eastwest;whiteSpace=wrap;" vertex="1" parent="nRip51ZFXmfpwrwbaj71-24">
          <mxGeometry y="351" width="410" height="20" as="geometry" />
        </mxCell>
        <mxCell id="nRip51ZFXmfpwrwbaj71-55" value="inherited override # OnPacketReceived(string recievedData):void" style="text;html=1;strokeColor=none;fillColor=none;align=left;verticalAlign=middle;spacingLeft=4;spacingRight=4;overflow=hidden;rotatable=0;points=[[0,0.5],[1,0.5]];portConstraint=eastwest;whiteSpace=wrap;" vertex="1" parent="nRip51ZFXmfpwrwbaj71-24">
          <mxGeometry y="371" width="410" height="20" as="geometry" />
        </mxCell>
        <mxCell id="nRip51ZFXmfpwrwbaj71-65" value="+ SendGunCommand:void" style="text;html=1;strokeColor=none;fillColor=none;align=left;verticalAlign=middle;spacingLeft=4;spacingRight=4;overflow=hidden;rotatable=0;points=[[0,0.5],[1,0.5]];portConstraint=eastwest;whiteSpace=wrap;" vertex="1" parent="nRip51ZFXmfpwrwbaj71-24">
          <mxGeometry y="391" width="410" height="20" as="geometry" />
        </mxCell>
        <mxCell id="nRip51ZFXmfpwrwbaj71-66" value="+ SetNerfGunEmulationMode:void" style="text;html=1;strokeColor=none;fillColor=none;align=left;verticalAlign=middle;spacingLeft=4;spacingRight=4;overflow=hidden;rotatable=0;points=[[0,0.5],[1,0.5]];portConstraint=eastwest;whiteSpace=wrap;" vertex="1" parent="nRip51ZFXmfpwrwbaj71-24">
          <mxGeometry y="411" width="410" height="20" as="geometry" />
        </mxCell>
        <mxCell id="nRip51ZFXmfpwrwbaj71-88" style="edgeStyle=orthogonalEdgeStyle;rounded=0;orthogonalLoop=1;jettySize=auto;html=1;endArrow=block;endFill=0;" edge="1" parent="1" source="nRip51ZFXmfpwrwbaj71-33" target="nRip51ZFXmfpwrwbaj71-1">
          <mxGeometry relative="1" as="geometry" />
        </mxCell>
        <mxCell id="nRip51ZFXmfpwrwbaj71-33" value="&amp;lt;&amp;lt;class&amp;gt;&amp;gt;&lt;br&gt;&lt;b&gt;GyroscopeCommuincation&lt;/b&gt;" style="swimlane;fontStyle=0;align=center;verticalAlign=top;childLayout=stackLayout;horizontal=1;startSize=55;horizontalStack=0;resizeParent=1;resizeParentMax=0;resizeLast=0;collapsible=0;marginBottom=0;html=1;whiteSpace=wrap;" vertex="1" parent="1">
          <mxGeometry x="-250" y="750" width="380" height="531" as="geometry" />
        </mxCell>
        <mxCell id="nRip51ZFXmfpwrwbaj71-34" value="attributes" style="text;html=1;strokeColor=none;fillColor=none;align=center;verticalAlign=middle;spacingLeft=4;spacingRight=4;overflow=hidden;rotatable=0;points=[[0,0.5],[1,0.5]];portConstraint=eastwest;whiteSpace=wrap;" vertex="1" parent="nRip51ZFXmfpwrwbaj71-33">
          <mxGeometry y="55" width="380" height="20" as="geometry" />
        </mxCell>
        <mxCell id="nRip51ZFXmfpwrwbaj71-35" value="- gunCommuincation:GunCommunication" style="text;html=1;strokeColor=none;fillColor=none;align=left;verticalAlign=middle;spacingLeft=4;spacingRight=4;overflow=hidden;rotatable=0;points=[[0,0.5],[1,0.5]];portConstraint=eastwest;whiteSpace=wrap;" vertex="1" parent="nRip51ZFXmfpwrwbaj71-33">
          <mxGeometry y="75" width="380" height="20" as="geometry" />
        </mxCell>
        <mxCell id="nRip51ZFXmfpwrwbaj71-67" value="- calibrateButtonn:Button" style="text;html=1;strokeColor=none;fillColor=none;align=left;verticalAlign=middle;spacingLeft=4;spacingRight=4;overflow=hidden;rotatable=0;points=[[0,0.5],[1,0.5]];portConstraint=eastwest;whiteSpace=wrap;" vertex="1" parent="nRip51ZFXmfpwrwbaj71-33">
          <mxGeometry y="95" width="380" height="20" as="geometry" />
        </mxCell>
        <mxCell id="nRip51ZFXmfpwrwbaj71-68" value="- xAxisOffsetSlider:Slider" style="text;html=1;strokeColor=none;fillColor=none;align=left;verticalAlign=middle;spacingLeft=4;spacingRight=4;overflow=hidden;rotatable=0;points=[[0,0.5],[1,0.5]];portConstraint=eastwest;whiteSpace=wrap;" vertex="1" parent="nRip51ZFXmfpwrwbaj71-33">
          <mxGeometry y="115" width="380" height="20" as="geometry" />
        </mxCell>
        <mxCell id="nRip51ZFXmfpwrwbaj71-69" value="- gyroCalibrationMode:bool = false" style="text;html=1;strokeColor=none;fillColor=none;align=left;verticalAlign=middle;spacingLeft=4;spacingRight=4;overflow=hidden;rotatable=0;points=[[0,0.5],[1,0.5]];portConstraint=eastwest;whiteSpace=wrap;" vertex="1" parent="nRip51ZFXmfpwrwbaj71-33">
          <mxGeometry y="135" width="380" height="20" as="geometry" />
        </mxCell>
        <mxCell id="nRip51ZFXmfpwrwbaj71-70" value="- gyroScopeOffsetRotation:Quaternion" style="text;html=1;strokeColor=none;fillColor=none;align=left;verticalAlign=middle;spacingLeft=4;spacingRight=4;overflow=hidden;rotatable=0;points=[[0,0.5],[1,0.5]];portConstraint=eastwest;whiteSpace=wrap;" vertex="1" parent="nRip51ZFXmfpwrwbaj71-33">
          <mxGeometry y="155" width="380" height="20" as="geometry" />
        </mxCell>
        <mxCell id="nRip51ZFXmfpwrwbaj71-71" value="- gyroScopeOffsetEuler:Vector3 = Vector3.zero" style="text;html=1;strokeColor=none;fillColor=none;align=left;verticalAlign=middle;spacingLeft=4;spacingRight=4;overflow=hidden;rotatable=0;points=[[0,0.5],[1,0.5]];portConstraint=eastwest;whiteSpace=wrap;" vertex="1" parent="nRip51ZFXmfpwrwbaj71-33">
          <mxGeometry y="175" width="380" height="20" as="geometry" />
        </mxCell>
        <mxCell id="nRip51ZFXmfpwrwbaj71-72" value="- gyroEuler:Vector3" style="text;html=1;strokeColor=none;fillColor=none;align=left;verticalAlign=middle;spacingLeft=4;spacingRight=4;overflow=hidden;rotatable=0;points=[[0,0.5],[1,0.5]];portConstraint=eastwest;whiteSpace=wrap;" vertex="1" parent="nRip51ZFXmfpwrwbaj71-33">
          <mxGeometry y="195" width="380" height="20" as="geometry" />
        </mxCell>
        <mxCell id="nRip51ZFXmfpwrwbaj71-73" value="- editorOverrides:bool&amp;nbsp;" style="text;html=1;strokeColor=none;fillColor=none;align=left;verticalAlign=middle;spacingLeft=4;spacingRight=4;overflow=hidden;rotatable=0;points=[[0,0.5],[1,0.5]];portConstraint=eastwest;whiteSpace=wrap;" vertex="1" parent="nRip51ZFXmfpwrwbaj71-33">
          <mxGeometry y="215" width="380" height="20" as="geometry" />
        </mxCell>
        <mxCell id="nRip51ZFXmfpwrwbaj71-74" value="- float mouseSensitivity:float&amp;nbsp; = 1f" style="text;html=1;strokeColor=none;fillColor=none;align=left;verticalAlign=middle;spacingLeft=4;spacingRight=4;overflow=hidden;rotatable=0;points=[[0,0.5],[1,0.5]];portConstraint=eastwest;whiteSpace=wrap;" vertex="1" parent="nRip51ZFXmfpwrwbaj71-33">
          <mxGeometry y="235" width="380" height="20" as="geometry" />
        </mxCell>
        <mxCell id="nRip51ZFXmfpwrwbaj71-75" value="- mousePosLastFrame:Vector3" style="text;html=1;strokeColor=none;fillColor=none;align=left;verticalAlign=middle;spacingLeft=4;spacingRight=4;overflow=hidden;rotatable=0;points=[[0,0.5],[1,0.5]];portConstraint=eastwest;whiteSpace=wrap;" vertex="1" parent="nRip51ZFXmfpwrwbaj71-33">
          <mxGeometry y="255" width="380" height="20" as="geometry" />
        </mxCell>
        <mxCell id="nRip51ZFXmfpwrwbaj71-85" value="" style="line;strokeWidth=1;fillColor=none;align=left;verticalAlign=middle;spacingTop=-1;spacingLeft=3;spacingRight=3;rotatable=0;labelPosition=right;points=[];portConstraint=eastwest;" vertex="1" parent="nRip51ZFXmfpwrwbaj71-33">
          <mxGeometry y="275" width="380" height="8" as="geometry" />
        </mxCell>
        <mxCell id="nRip51ZFXmfpwrwbaj71-86" value="properties" style="text;html=1;strokeColor=none;fillColor=none;align=center;verticalAlign=middle;spacingLeft=4;spacingRight=4;overflow=hidden;rotatable=0;points=[[0,0.5],[1,0.5]];portConstraint=eastwest;whiteSpace=wrap;" vertex="1" parent="nRip51ZFXmfpwrwbaj71-33">
          <mxGeometry y="283" width="380" height="20" as="geometry" />
        </mxCell>
        <mxCell id="nRip51ZFXmfpwrwbaj71-87" value="+ Calibrating:bool =&amp;gt; gyroCalibrationMode" style="text;html=1;strokeColor=none;fillColor=none;align=left;verticalAlign=middle;spacingLeft=4;spacingRight=4;overflow=hidden;rotatable=0;points=[[0,0.5],[1,0.5]];portConstraint=eastwest;whiteSpace=wrap;" vertex="1" parent="nRip51ZFXmfpwrwbaj71-33">
          <mxGeometry y="303" width="380" height="20" as="geometry" />
        </mxCell>
        <mxCell id="nRip51ZFXmfpwrwbaj71-38" value="" style="line;strokeWidth=1;fillColor=none;align=left;verticalAlign=middle;spacingTop=-1;spacingLeft=3;spacingRight=3;rotatable=0;labelPosition=right;points=[];portConstraint=eastwest;" vertex="1" parent="nRip51ZFXmfpwrwbaj71-33">
          <mxGeometry y="323" width="380" height="8" as="geometry" />
        </mxCell>
        <mxCell id="nRip51ZFXmfpwrwbaj71-39" value="operations" style="text;html=1;strokeColor=none;fillColor=none;align=center;verticalAlign=middle;spacingLeft=4;spacingRight=4;overflow=hidden;rotatable=0;points=[[0,0.5],[1,0.5]];portConstraint=eastwest;whiteSpace=wrap;" vertex="1" parent="nRip51ZFXmfpwrwbaj71-33">
          <mxGeometry y="331" width="380" height="20" as="geometry" />
        </mxCell>
        <mxCell id="nRip51ZFXmfpwrwbaj71-40" value="- OnEnable:void" style="text;html=1;strokeColor=none;fillColor=none;align=left;verticalAlign=middle;spacingLeft=4;spacingRight=4;overflow=hidden;rotatable=0;points=[[0,0.5],[1,0.5]];portConstraint=eastwest;whiteSpace=wrap;" vertex="1" parent="nRip51ZFXmfpwrwbaj71-33">
          <mxGeometry y="351" width="380" height="20" as="geometry" />
        </mxCell>
        <mxCell id="nRip51ZFXmfpwrwbaj71-76" value="-Start:void" style="text;html=1;strokeColor=none;fillColor=none;align=left;verticalAlign=middle;spacingLeft=4;spacingRight=4;overflow=hidden;rotatable=0;points=[[0,0.5],[1,0.5]];portConstraint=eastwest;whiteSpace=wrap;" vertex="1" parent="nRip51ZFXmfpwrwbaj71-33">
          <mxGeometry y="371" width="380" height="20" as="geometry" />
        </mxCell>
        <mxCell id="nRip51ZFXmfpwrwbaj71-77" value="-Update:void" style="text;html=1;strokeColor=none;fillColor=none;align=left;verticalAlign=middle;spacingLeft=4;spacingRight=4;overflow=hidden;rotatable=0;points=[[0,0.5],[1,0.5]];portConstraint=eastwest;whiteSpace=wrap;" vertex="1" parent="nRip51ZFXmfpwrwbaj71-33">
          <mxGeometry y="391" width="380" height="20" as="geometry" />
        </mxCell>
        <mxCell id="nRip51ZFXmfpwrwbaj71-79" value="inherited override # OnPacketReceived(recievedData:string):void" style="text;html=1;strokeColor=none;fillColor=none;align=left;verticalAlign=middle;spacingLeft=4;spacingRight=4;overflow=hidden;rotatable=0;points=[[0,0.5],[1,0.5]];portConstraint=eastwest;whiteSpace=wrap;" vertex="1" parent="nRip51ZFXmfpwrwbaj71-33">
          <mxGeometry y="411" width="380" height="20" as="geometry" />
        </mxCell>
        <mxCell id="nRip51ZFXmfpwrwbaj71-80" value="- SetGunOreintation(recievedData:string):void" style="text;html=1;strokeColor=none;fillColor=none;align=left;verticalAlign=middle;spacingLeft=4;spacingRight=4;overflow=hidden;rotatable=0;points=[[0,0.5],[1,0.5]];portConstraint=eastwest;whiteSpace=wrap;" vertex="1" parent="nRip51ZFXmfpwrwbaj71-33">
          <mxGeometry y="431" width="380" height="20" as="geometry" />
        </mxCell>
        <mxCell id="nRip51ZFXmfpwrwbaj71-81" value="- TrySetGyroCalibration(recievedData:string):void" style="text;html=1;strokeColor=none;fillColor=none;align=left;verticalAlign=middle;spacingLeft=4;spacingRight=4;overflow=hidden;rotatable=0;points=[[0,0.5],[1,0.5]];portConstraint=eastwest;whiteSpace=wrap;" vertex="1" parent="nRip51ZFXmfpwrwbaj71-33">
          <mxGeometry y="451" width="380" height="20" as="geometry" />
        </mxCell>
        <mxCell id="nRip51ZFXmfpwrwbaj71-82" value="+ BeginReceiveGyroCalibration:void" style="text;html=1;strokeColor=none;fillColor=none;align=left;verticalAlign=middle;spacingLeft=4;spacingRight=4;overflow=hidden;rotatable=0;points=[[0,0.5],[1,0.5]];portConstraint=eastwest;whiteSpace=wrap;" vertex="1" parent="nRip51ZFXmfpwrwbaj71-33">
          <mxGeometry y="471" width="380" height="20" as="geometry" />
        </mxCell>
        <mxCell id="nRip51ZFXmfpwrwbaj71-83" value="+ SendGyroCalibration:void" style="text;html=1;strokeColor=none;fillColor=none;align=left;verticalAlign=middle;spacingLeft=4;spacingRight=4;overflow=hidden;rotatable=0;points=[[0,0.5],[1,0.5]];portConstraint=eastwest;whiteSpace=wrap;" vertex="1" parent="nRip51ZFXmfpwrwbaj71-33">
          <mxGeometry y="491" width="380" height="20" as="geometry" />
        </mxCell>
        <mxCell id="nRip51ZFXmfpwrwbaj71-84" value="+ OnAxisOffsetChange:void" style="text;html=1;strokeColor=none;fillColor=none;align=left;verticalAlign=middle;spacingLeft=4;spacingRight=4;overflow=hidden;rotatable=0;points=[[0,0.5],[1,0.5]];portConstraint=eastwest;whiteSpace=wrap;" vertex="1" parent="nRip51ZFXmfpwrwbaj71-33">
          <mxGeometry y="511" width="380" height="20" as="geometry" />
        </mxCell>
        <mxCell id="nRip51ZFXmfpwrwbaj71-42" value="MonoBehaviour" style="shape=process2;fixedSize=1;size=5;fontStyle=1;html=1;whiteSpace=wrap;" vertex="1" parent="1">
          <mxGeometry x="-344" y="150" width="140" height="40" as="geometry" />
        </mxCell>
        <mxCell id="nRip51ZFXmfpwrwbaj71-108" style="edgeStyle=orthogonalEdgeStyle;rounded=0;orthogonalLoop=1;jettySize=auto;html=1;entryX=0;entryY=0.5;entryDx=0;entryDy=0;endArrow=open;endFill=0;" edge="1" parent="1" source="nRip51ZFXmfpwrwbaj71-90" target="nRip51ZFXmfpwrwbaj71-44">
          <mxGeometry relative="1" as="geometry" />
        </mxCell>
        <mxCell id="nRip51ZFXmfpwrwbaj71-109" style="edgeStyle=orthogonalEdgeStyle;rounded=0;orthogonalLoop=1;jettySize=auto;html=1;entryX=0;entryY=0.5;entryDx=0;entryDy=0;endArrow=open;endFill=0;" edge="1" parent="1" source="nRip51ZFXmfpwrwbaj71-90" target="nRip51ZFXmfpwrwbaj71-51">
          <mxGeometry relative="1" as="geometry" />
        </mxCell>
        <mxCell id="nRip51ZFXmfpwrwbaj71-90" value="&amp;lt;&amp;lt;struct&amp;gt;&amp;gt;&lt;br&gt;&lt;b&gt;NerfgunState&lt;/b&gt;" style="swimlane;fontStyle=0;align=center;verticalAlign=top;childLayout=stackLayout;horizontal=1;startSize=55;horizontalStack=0;resizeParent=1;resizeParentMax=0;resizeLast=0;collapsible=0;marginBottom=0;html=1;whiteSpace=wrap;" vertex="1" parent="1">
          <mxGeometry x="-1100" y="740" width="220" height="331" as="geometry" />
        </mxCell>
        <mxCell id="nRip51ZFXmfpwrwbaj71-91" value="attributes" style="text;html=1;strokeColor=none;fillColor=none;align=center;verticalAlign=middle;spacingLeft=4;spacingRight=4;overflow=hidden;rotatable=0;points=[[0,0.5],[1,0.5]];portConstraint=eastwest;whiteSpace=wrap;" vertex="1" parent="nRip51ZFXmfpwrwbaj71-90">
          <mxGeometry y="55" width="220" height="20" as="geometry" />
        </mxCell>
        <mxCell id="nRip51ZFXmfpwrwbaj71-92" value="+ RF:byte" style="text;html=1;strokeColor=none;fillColor=none;align=left;verticalAlign=middle;spacingLeft=4;spacingRight=4;overflow=hidden;rotatable=0;points=[[0,0.5],[1,0.5]];portConstraint=eastwest;whiteSpace=wrap;" vertex="1" parent="nRip51ZFXmfpwrwbaj71-90">
          <mxGeometry y="75" width="220" height="20" as="geometry" />
        </mxCell>
        <mxCell id="nRip51ZFXmfpwrwbaj71-98" value="+ A1:bool" style="text;html=1;strokeColor=none;fillColor=none;align=left;verticalAlign=middle;spacingLeft=4;spacingRight=4;overflow=hidden;rotatable=0;points=[[0,0.5],[1,0.5]];portConstraint=eastwest;whiteSpace=wrap;" vertex="1" parent="nRip51ZFXmfpwrwbaj71-90">
          <mxGeometry y="95" width="220" height="20" as="geometry" />
        </mxCell>
        <mxCell id="nRip51ZFXmfpwrwbaj71-99" value="+ A2:bool" style="text;html=1;strokeColor=none;fillColor=none;align=left;verticalAlign=middle;spacingLeft=4;spacingRight=4;overflow=hidden;rotatable=0;points=[[0,0.5],[1,0.5]];portConstraint=eastwest;whiteSpace=wrap;" vertex="1" parent="nRip51ZFXmfpwrwbaj71-90">
          <mxGeometry y="115" width="220" height="20" as="geometry" />
        </mxCell>
        <mxCell id="nRip51ZFXmfpwrwbaj71-100" value="+ A3:bool" style="text;html=1;strokeColor=none;fillColor=none;align=left;verticalAlign=middle;spacingLeft=4;spacingRight=4;overflow=hidden;rotatable=0;points=[[0,0.5],[1,0.5]];portConstraint=eastwest;whiteSpace=wrap;" vertex="1" parent="nRip51ZFXmfpwrwbaj71-90">
          <mxGeometry y="135" width="220" height="20" as="geometry" />
        </mxCell>
        <mxCell id="nRip51ZFXmfpwrwbaj71-101" value="+ S1:bool" style="text;html=1;strokeColor=none;fillColor=none;align=left;verticalAlign=middle;spacingLeft=4;spacingRight=4;overflow=hidden;rotatable=0;points=[[0,0.5],[1,0.5]];portConstraint=eastwest;whiteSpace=wrap;" vertex="1" parent="nRip51ZFXmfpwrwbaj71-90">
          <mxGeometry y="155" width="220" height="20" as="geometry" />
        </mxCell>
        <mxCell id="nRip51ZFXmfpwrwbaj71-102" value="+ S2:bool" style="text;html=1;strokeColor=none;fillColor=none;align=left;verticalAlign=middle;spacingLeft=4;spacingRight=4;overflow=hidden;rotatable=0;points=[[0,0.5],[1,0.5]];portConstraint=eastwest;whiteSpace=wrap;" vertex="1" parent="nRip51ZFXmfpwrwbaj71-90">
          <mxGeometry y="175" width="220" height="20" as="geometry" />
        </mxCell>
        <mxCell id="nRip51ZFXmfpwrwbaj71-103" value="+ RB:bool" style="text;html=1;strokeColor=none;fillColor=none;align=left;verticalAlign=middle;spacingLeft=4;spacingRight=4;overflow=hidden;rotatable=0;points=[[0,0.5],[1,0.5]];portConstraint=eastwest;whiteSpace=wrap;" vertex="1" parent="nRip51ZFXmfpwrwbaj71-90">
          <mxGeometry y="195" width="220" height="20" as="geometry" />
        </mxCell>
        <mxCell id="nRip51ZFXmfpwrwbaj71-104" value="+ encoderPos:int" style="text;html=1;strokeColor=none;fillColor=none;align=left;verticalAlign=middle;spacingLeft=4;spacingRight=4;overflow=hidden;rotatable=0;points=[[0,0.5],[1,0.5]];portConstraint=eastwest;whiteSpace=wrap;" vertex="1" parent="nRip51ZFXmfpwrwbaj71-90">
          <mxGeometry y="215" width="220" height="20" as="geometry" />
        </mxCell>
        <mxCell id="nRip51ZFXmfpwrwbaj71-106" value="" style="line;strokeWidth=1;fillColor=none;align=left;verticalAlign=middle;spacingTop=-1;spacingLeft=3;spacingRight=3;rotatable=0;labelPosition=right;points=[];portConstraint=eastwest;" vertex="1" parent="nRip51ZFXmfpwrwbaj71-90">
          <mxGeometry y="235" width="220" height="8" as="geometry" />
        </mxCell>
        <mxCell id="nRip51ZFXmfpwrwbaj71-105" value="properties" style="text;html=1;strokeColor=none;fillColor=none;align=center;verticalAlign=middle;spacingLeft=4;spacingRight=4;overflow=hidden;rotatable=0;points=[[0,0.5],[1,0.5]];portConstraint=eastwest;whiteSpace=wrap;" vertex="1" parent="nRip51ZFXmfpwrwbaj71-90">
          <mxGeometry y="243" width="220" height="20" as="geometry" />
        </mxCell>
        <mxCell id="nRip51ZFXmfpwrwbaj71-107" value="+ BurstMode:bool =&amp;gt; RF != 2" style="text;html=1;strokeColor=none;fillColor=none;align=left;verticalAlign=middle;spacingLeft=4;spacingRight=4;overflow=hidden;rotatable=0;points=[[0,0.5],[1,0.5]];portConstraint=eastwest;whiteSpace=wrap;" vertex="1" parent="nRip51ZFXmfpwrwbaj71-90">
          <mxGeometry y="263" width="220" height="20" as="geometry" />
        </mxCell>
        <mxCell id="nRip51ZFXmfpwrwbaj71-95" value="" style="line;strokeWidth=1;fillColor=none;align=left;verticalAlign=middle;spacingTop=-1;spacingLeft=3;spacingRight=3;rotatable=0;labelPosition=right;points=[];portConstraint=eastwest;" vertex="1" parent="nRip51ZFXmfpwrwbaj71-90">
          <mxGeometry y="283" width="220" height="8" as="geometry" />
        </mxCell>
        <mxCell id="nRip51ZFXmfpwrwbaj71-96" value="operations" style="text;html=1;strokeColor=none;fillColor=none;align=center;verticalAlign=middle;spacingLeft=4;spacingRight=4;overflow=hidden;rotatable=0;points=[[0,0.5],[1,0.5]];portConstraint=eastwest;whiteSpace=wrap;" vertex="1" parent="nRip51ZFXmfpwrwbaj71-90">
          <mxGeometry y="291" width="220" height="20" as="geometry" />
        </mxCell>
        <mxCell id="nRip51ZFXmfpwrwbaj71-97" value="+BurstLockOut(int shotsFired):bool" style="text;html=1;strokeColor=none;fillColor=none;align=left;verticalAlign=middle;spacingLeft=4;spacingRight=4;overflow=hidden;rotatable=0;points=[[0,0.5],[1,0.5]];portConstraint=eastwest;whiteSpace=wrap;" vertex="1" parent="nRip51ZFXmfpwrwbaj71-90">
          <mxGeometry y="311" width="220" height="20" as="geometry" />
        </mxCell>
        <mxCell id="nRip51ZFXmfpwrwbaj71-130" style="edgeStyle=orthogonalEdgeStyle;rounded=0;orthogonalLoop=1;jettySize=auto;html=1;entryX=0;entryY=0.5;entryDx=0;entryDy=0;endArrow=open;endFill=0;" edge="1" parent="1" source="nRip51ZFXmfpwrwbaj71-110" target="nRip51ZFXmfpwrwbaj71-52">
          <mxGeometry relative="1" as="geometry">
            <Array as="points">
              <mxPoint x="-840" y="1230" />
              <mxPoint x="-840" y="1023" />
            </Array>
          </mxGeometry>
        </mxCell>
        <mxCell id="nRip51ZFXmfpwrwbaj71-110" value="&amp;lt;&amp;lt;struct&amp;gt;&amp;gt;&lt;br&gt;&lt;b&gt;NerfgunCommandRequest&lt;/b&gt;" style="swimlane;fontStyle=0;align=center;verticalAlign=top;childLayout=stackLayout;horizontal=1;startSize=55;horizontalStack=0;resizeParent=1;resizeParentMax=0;resizeLast=0;collapsible=0;marginBottom=0;html=1;whiteSpace=wrap;" vertex="1" parent="1">
          <mxGeometry x="-1100" y="1120" width="220" height="175" as="geometry" />
        </mxCell>
        <mxCell id="nRip51ZFXmfpwrwbaj71-111" value="attributes" style="text;html=1;strokeColor=none;fillColor=none;align=center;verticalAlign=middle;spacingLeft=4;spacingRight=4;overflow=hidden;rotatable=0;points=[[0,0.5],[1,0.5]];portConstraint=eastwest;whiteSpace=wrap;" vertex="1" parent="nRip51ZFXmfpwrwbaj71-110">
          <mxGeometry y="55" width="220" height="20" as="geometry" />
        </mxCell>
        <mxCell id="nRip51ZFXmfpwrwbaj71-112" value="+ EM:byte" style="text;html=1;strokeColor=none;fillColor=none;align=left;verticalAlign=middle;spacingLeft=4;spacingRight=4;overflow=hidden;rotatable=0;points=[[0,0.5],[1,0.5]];portConstraint=eastwest;whiteSpace=wrap;" vertex="1" parent="nRip51ZFXmfpwrwbaj71-110">
          <mxGeometry y="75" width="220" height="20" as="geometry" />
        </mxCell>
        <mxCell id="nRip51ZFXmfpwrwbaj71-126" value="+ CG:byte" style="text;html=1;strokeColor=none;fillColor=none;align=left;verticalAlign=middle;spacingLeft=4;spacingRight=4;overflow=hidden;rotatable=0;points=[[0,0.5],[1,0.5]];portConstraint=eastwest;whiteSpace=wrap;" vertex="1" parent="nRip51ZFXmfpwrwbaj71-110">
          <mxGeometry y="95" width="220" height="20" as="geometry" />
        </mxCell>
        <mxCell id="nRip51ZFXmfpwrwbaj71-119" value="+ CX:int" style="text;html=1;strokeColor=none;fillColor=none;align=left;verticalAlign=middle;spacingLeft=4;spacingRight=4;overflow=hidden;rotatable=0;points=[[0,0.5],[1,0.5]];portConstraint=eastwest;whiteSpace=wrap;" vertex="1" parent="nRip51ZFXmfpwrwbaj71-110">
          <mxGeometry y="115" width="220" height="20" as="geometry" />
        </mxCell>
        <mxCell id="nRip51ZFXmfpwrwbaj71-128" value="+ CY:int" style="text;html=1;strokeColor=none;fillColor=none;align=left;verticalAlign=middle;spacingLeft=4;spacingRight=4;overflow=hidden;rotatable=0;points=[[0,0.5],[1,0.5]];portConstraint=eastwest;whiteSpace=wrap;" vertex="1" parent="nRip51ZFXmfpwrwbaj71-110">
          <mxGeometry y="135" width="220" height="20" as="geometry" />
        </mxCell>
        <mxCell id="nRip51ZFXmfpwrwbaj71-129" value="+ CZ:int" style="text;html=1;strokeColor=none;fillColor=none;align=left;verticalAlign=middle;spacingLeft=4;spacingRight=4;overflow=hidden;rotatable=0;points=[[0,0.5],[1,0.5]];portConstraint=eastwest;whiteSpace=wrap;" vertex="1" parent="nRip51ZFXmfpwrwbaj71-110">
          <mxGeometry y="155" width="220" height="20" as="geometry" />
        </mxCell>
        <mxCell id="nRip51ZFXmfpwrwbaj71-131" style="edgeStyle=orthogonalEdgeStyle;rounded=0;orthogonalLoop=1;jettySize=auto;html=1;entryX=0;entryY=0.5;entryDx=0;entryDy=0;endArrow=open;endFill=0;" edge="1" parent="1" source="nRip51ZFXmfpwrwbaj71-126" target="nRip51ZFXmfpwrwbaj71-45">
          <mxGeometry relative="1" as="geometry">
            <Array as="points">
              <mxPoint x="-840" y="1230" />
              <mxPoint x="-840" y="875" />
            </Array>
          </mxGeometry>
        </mxCell>
        <mxCell id="nRip51ZFXmfpwrwbaj71-152" style="edgeStyle=orthogonalEdgeStyle;rounded=0;orthogonalLoop=1;jettySize=auto;html=1;entryX=0.5;entryY=1;entryDx=0;entryDy=0;endArrow=block;endFill=0;" edge="1" parent="1" source="nRip51ZFXmfpwrwbaj71-132" target="nRip51ZFXmfpwrwbaj71-151">
          <mxGeometry relative="1" as="geometry" />
        </mxCell>
        <mxCell id="nRip51ZFXmfpwrwbaj71-132" value="&amp;lt;&amp;lt;class&amp;gt;&amp;gt;&lt;br&gt;&lt;b&gt;VirtualNerfgun&lt;/b&gt;" style="swimlane;fontStyle=0;align=center;verticalAlign=top;childLayout=stackLayout;horizontal=1;startSize=55;horizontalStack=0;resizeParent=1;resizeParentMax=0;resizeLast=0;collapsible=0;marginBottom=0;html=1;whiteSpace=wrap;" vertex="1" parent="1">
          <mxGeometry x="-610" y="1360" width="280" height="511" as="geometry" />
        </mxCell>
        <mxCell id="nRip51ZFXmfpwrwbaj71-133" value="attributes" style="text;html=1;strokeColor=none;fillColor=none;align=center;verticalAlign=middle;spacingLeft=4;spacingRight=4;overflow=hidden;rotatable=0;points=[[0,0.5],[1,0.5]];portConstraint=eastwest;whiteSpace=wrap;" vertex="1" parent="nRip51ZFXmfpwrwbaj71-132">
          <mxGeometry y="55" width="280" height="20" as="geometry" />
        </mxCell>
        <mxCell id="nRip51ZFXmfpwrwbaj71-134" value="- physicalNerfgun:GunCommunication" style="text;html=1;strokeColor=none;fillColor=none;align=left;verticalAlign=middle;spacingLeft=4;spacingRight=4;overflow=hidden;rotatable=0;points=[[0,0.5],[1,0.5]];portConstraint=eastwest;whiteSpace=wrap;" vertex="1" parent="nRip51ZFXmfpwrwbaj71-132">
          <mxGeometry y="75" width="280" height="20" as="geometry" />
        </mxCell>
        <mxCell id="nRip51ZFXmfpwrwbaj71-135" value="- dartPrefab:GameObject" style="text;html=1;strokeColor=none;fillColor=none;align=left;verticalAlign=middle;spacingLeft=4;spacingRight=4;overflow=hidden;rotatable=0;points=[[0,0.5],[1,0.5]];portConstraint=eastwest;whiteSpace=wrap;" vertex="1" parent="nRip51ZFXmfpwrwbaj71-132">
          <mxGeometry y="95" width="280" height="20" as="geometry" />
        </mxCell>
        <mxCell id="nRip51ZFXmfpwrwbaj71-136" value="- dartSpawnPoint:Transform" style="text;html=1;strokeColor=none;fillColor=none;align=left;verticalAlign=middle;spacingLeft=4;spacingRight=4;overflow=hidden;rotatable=0;points=[[0,0.5],[1,0.5]];portConstraint=eastwest;whiteSpace=wrap;" vertex="1" parent="nRip51ZFXmfpwrwbaj71-132">
          <mxGeometry y="115" width="280" height="20" as="geometry" />
        </mxCell>
        <mxCell id="nRip51ZFXmfpwrwbaj71-137" value="- laserPointerMesh:MeshFilter" style="text;html=1;strokeColor=none;fillColor=none;align=left;verticalAlign=middle;spacingLeft=4;spacingRight=4;overflow=hidden;rotatable=0;points=[[0,0.5],[1,0.5]];portConstraint=eastwest;whiteSpace=wrap;" vertex="1" parent="nRip51ZFXmfpwrwbaj71-132">
          <mxGeometry y="135" width="280" height="20" as="geometry" />
        </mxCell>
        <mxCell id="nRip51ZFXmfpwrwbaj71-138" value="- virtualGunCoolDown:float = 0.5f" style="text;html=1;strokeColor=none;fillColor=none;align=left;verticalAlign=middle;spacingLeft=4;spacingRight=4;overflow=hidden;rotatable=0;points=[[0,0.5],[1,0.5]];portConstraint=eastwest;whiteSpace=wrap;" vertex="1" parent="nRip51ZFXmfpwrwbaj71-132">
          <mxGeometry y="155" width="280" height="20" as="geometry" />
        </mxCell>
        <mxCell id="nRip51ZFXmfpwrwbaj71-139" value="- enableLaserPointer:bool" style="text;html=1;strokeColor=none;fillColor=none;align=left;verticalAlign=middle;spacingLeft=4;spacingRight=4;overflow=hidden;rotatable=0;points=[[0,0.5],[1,0.5]];portConstraint=eastwest;whiteSpace=wrap;" vertex="1" parent="nRip51ZFXmfpwrwbaj71-132">
          <mxGeometry y="175" width="280" height="20" as="geometry" />
        </mxCell>
        <mxCell id="nRip51ZFXmfpwrwbaj71-140" value="- mesh:Mesh" style="text;html=1;strokeColor=none;fillColor=none;align=left;verticalAlign=middle;spacingLeft=4;spacingRight=4;overflow=hidden;rotatable=0;points=[[0,0.5],[1,0.5]];portConstraint=eastwest;whiteSpace=wrap;" vertex="1" parent="nRip51ZFXmfpwrwbaj71-132">
          <mxGeometry y="195" width="280" height="20" as="geometry" />
        </mxCell>
        <mxCell id="nRip51ZFXmfpwrwbaj71-153" value="- meshVertices:Vector3 Array" style="text;html=1;strokeColor=none;fillColor=none;align=left;verticalAlign=middle;spacingLeft=4;spacingRight=4;overflow=hidden;rotatable=0;points=[[0,0.5],[1,0.5]];portConstraint=eastwest;whiteSpace=wrap;" vertex="1" parent="nRip51ZFXmfpwrwbaj71-132">
          <mxGeometry y="215" width="280" height="20" as="geometry" />
        </mxCell>
        <mxCell id="nRip51ZFXmfpwrwbaj71-154" value="- burstShotsFired:int = 0" style="text;html=1;strokeColor=none;fillColor=none;align=left;verticalAlign=middle;spacingLeft=4;spacingRight=4;overflow=hidden;rotatable=0;points=[[0,0.5],[1,0.5]];portConstraint=eastwest;whiteSpace=wrap;" vertex="1" parent="nRip51ZFXmfpwrwbaj71-132">
          <mxGeometry y="235" width="280" height="20" as="geometry" />
        </mxCell>
        <mxCell id="nRip51ZFXmfpwrwbaj71-155" value="- totalShotsFired:int" style="text;html=1;strokeColor=none;fillColor=none;align=left;verticalAlign=middle;spacingLeft=4;spacingRight=4;overflow=hidden;rotatable=0;points=[[0,0.5],[1,0.5]];portConstraint=eastwest;whiteSpace=wrap;" vertex="1" parent="nRip51ZFXmfpwrwbaj71-132">
          <mxGeometry y="255" width="280" height="20" as="geometry" />
        </mxCell>
        <mxCell id="nRip51ZFXmfpwrwbaj71-156" value="- virtualCoolDownProcess:Coroutine" style="text;html=1;strokeColor=none;fillColor=none;align=left;verticalAlign=middle;spacingLeft=4;spacingRight=4;overflow=hidden;rotatable=0;points=[[0,0.5],[1,0.5]];portConstraint=eastwest;whiteSpace=wrap;" vertex="1" parent="nRip51ZFXmfpwrwbaj71-132">
          <mxGeometry y="275" width="280" height="20" as="geometry" />
        </mxCell>
        <mxCell id="nRip51ZFXmfpwrwbaj71-157" value="" style="line;strokeWidth=1;fillColor=none;align=left;verticalAlign=middle;spacingTop=-1;spacingLeft=3;spacingRight=3;rotatable=0;labelPosition=right;points=[];portConstraint=eastwest;" vertex="1" parent="nRip51ZFXmfpwrwbaj71-132">
          <mxGeometry y="295" width="280" height="8" as="geometry" />
        </mxCell>
        <mxCell id="nRip51ZFXmfpwrwbaj71-158" value="properties" style="text;html=1;strokeColor=none;fillColor=none;align=center;verticalAlign=middle;spacingLeft=4;spacingRight=4;overflow=hidden;rotatable=0;points=[[0,0.5],[1,0.5]];portConstraint=eastwest;whiteSpace=wrap;" vertex="1" parent="nRip51ZFXmfpwrwbaj71-132">
          <mxGeometry y="303" width="280" height="20" as="geometry" />
        </mxCell>
        <mxCell id="nRip51ZFXmfpwrwbaj71-159" value="+ TotalShotsFired:int =&amp;gt; totalShotsFired" style="text;html=1;strokeColor=none;fillColor=none;align=left;verticalAlign=middle;spacingLeft=4;spacingRight=4;overflow=hidden;rotatable=0;points=[[0,0.5],[1,0.5]];portConstraint=eastwest;whiteSpace=wrap;" vertex="1" parent="nRip51ZFXmfpwrwbaj71-132">
          <mxGeometry y="323" width="280" height="20" as="geometry" />
        </mxCell>
        <mxCell id="nRip51ZFXmfpwrwbaj71-141" value="" style="line;strokeWidth=1;fillColor=none;align=left;verticalAlign=middle;spacingTop=-1;spacingLeft=3;spacingRight=3;rotatable=0;labelPosition=right;points=[];portConstraint=eastwest;" vertex="1" parent="nRip51ZFXmfpwrwbaj71-132">
          <mxGeometry y="343" width="280" height="8" as="geometry" />
        </mxCell>
        <mxCell id="nRip51ZFXmfpwrwbaj71-142" value="operations" style="text;html=1;strokeColor=none;fillColor=none;align=center;verticalAlign=middle;spacingLeft=4;spacingRight=4;overflow=hidden;rotatable=0;points=[[0,0.5],[1,0.5]];portConstraint=eastwest;whiteSpace=wrap;" vertex="1" parent="nRip51ZFXmfpwrwbaj71-132">
          <mxGeometry y="351" width="280" height="20" as="geometry" />
        </mxCell>
        <mxCell id="nRip51ZFXmfpwrwbaj71-143" value="- Start:void" style="text;html=1;strokeColor=none;fillColor=none;align=left;verticalAlign=middle;spacingLeft=4;spacingRight=4;overflow=hidden;rotatable=0;points=[[0,0.5],[1,0.5]];portConstraint=eastwest;whiteSpace=wrap;" vertex="1" parent="nRip51ZFXmfpwrwbaj71-132">
          <mxGeometry y="371" width="280" height="20" as="geometry" />
        </mxCell>
        <mxCell id="nRip51ZFXmfpwrwbaj71-144" value="- OnEnable:void" style="text;html=1;strokeColor=none;fillColor=none;align=left;verticalAlign=middle;spacingLeft=4;spacingRight=4;overflow=hidden;rotatable=0;points=[[0,0.5],[1,0.5]];portConstraint=eastwest;whiteSpace=wrap;" vertex="1" parent="nRip51ZFXmfpwrwbaj71-132">
          <mxGeometry y="391" width="280" height="20" as="geometry" />
        </mxCell>
        <mxCell id="nRip51ZFXmfpwrwbaj71-145" value="- Update:void" style="text;html=1;strokeColor=none;fillColor=none;align=left;verticalAlign=middle;spacingLeft=4;spacingRight=4;overflow=hidden;rotatable=0;points=[[0,0.5],[1,0.5]];portConstraint=eastwest;whiteSpace=wrap;" vertex="1" parent="nRip51ZFXmfpwrwbaj71-132">
          <mxGeometry y="411" width="280" height="20" as="geometry" />
        </mxCell>
        <mxCell id="nRip51ZFXmfpwrwbaj71-146" value="- VirtualCoolDown:IEnumerator" style="text;html=1;strokeColor=none;fillColor=none;align=left;verticalAlign=middle;spacingLeft=4;spacingRight=4;overflow=hidden;rotatable=0;points=[[0,0.5],[1,0.5]];portConstraint=eastwest;whiteSpace=wrap;" vertex="1" parent="nRip51ZFXmfpwrwbaj71-132">
          <mxGeometry y="431" width="280" height="20" as="geometry" />
        </mxCell>
        <mxCell id="nRip51ZFXmfpwrwbaj71-147" value="-FireGun:void" style="text;html=1;strokeColor=none;fillColor=none;align=left;verticalAlign=middle;spacingLeft=4;spacingRight=4;overflow=hidden;rotatable=0;points=[[0,0.5],[1,0.5]];portConstraint=eastwest;whiteSpace=wrap;" vertex="1" parent="nRip51ZFXmfpwrwbaj71-132">
          <mxGeometry y="451" width="280" height="20" as="geometry" />
        </mxCell>
        <mxCell id="nRip51ZFXmfpwrwbaj71-148" value="- UpdateLaserPointer:void" style="text;html=1;strokeColor=none;fillColor=none;align=left;verticalAlign=middle;spacingLeft=4;spacingRight=4;overflow=hidden;rotatable=0;points=[[0,0.5],[1,0.5]];portConstraint=eastwest;whiteSpace=wrap;" vertex="1" parent="nRip51ZFXmfpwrwbaj71-132">
          <mxGeometry y="471" width="280" height="20" as="geometry" />
        </mxCell>
        <mxCell id="nRip51ZFXmfpwrwbaj71-150" value="- OnDisable:void" style="text;html=1;strokeColor=none;fillColor=none;align=left;verticalAlign=middle;spacingLeft=4;spacingRight=4;overflow=hidden;rotatable=0;points=[[0,0.5],[1,0.5]];portConstraint=eastwest;whiteSpace=wrap;" vertex="1" parent="nRip51ZFXmfpwrwbaj71-132">
          <mxGeometry y="491" width="280" height="20" as="geometry" />
        </mxCell>
        <mxCell id="nRip51ZFXmfpwrwbaj71-151" value="MonoBehaviour" style="shape=process2;fixedSize=1;size=5;fontStyle=1;html=1;whiteSpace=wrap;" vertex="1" parent="1">
          <mxGeometry x="-540" y="1255" width="140" height="40" as="geometry" />
        </mxCell>
      </root>
    </mxGraphModel>
  </diagram>
</mxfile>
